<?xml version="1.0" encoding="utf-8"?>
<!-- Generator: Adobe Illustrator 16.0.3, SVG Export Plug-In . SVG Version: 6.00 Build 0)  -->
<!DOCTYPE svg PUBLIC "-//W3C//DTD SVG 1.1//EN" "http://www.w3.org/Graphics/SVG/1.1/DTD/svg11.dtd">
<svg version="1.1" id="Vrstva_19_kopie_1_" xmlns="http://www.w3.org/2000/svg" xmlns:xlink="http://www.w3.org/1999/xlink" x="0px"
	 y="0px" width="346.036px" height="111.21px" viewBox="0 0 346.036 111.21" enable-background="new 0 0 346.036 111.21"
	 xml:space="preserve">
<g>
	<path fill="#B2C0CE" d="M42.948,103.085v-2.945l-0.748,0.576l-0.494-0.674l1.32-0.969H43.9v4.012H42.948z"/>
	<path fill="#B2C0CE" d="M50.392,101.64l-0.97,1.445h-1.149l0.997-1.383l0.011-0.017c-0.079,0.028-0.192,0.045-0.283,0.045
		c-0.703,0-1.32-0.527-1.32-1.309c0-0.912,0.714-1.456,1.581-1.456c0.878,0,1.582,0.556,1.582,1.434
		C50.84,100.876,50.659,101.244,50.392,101.64z M49.264,99.749c-0.379,0-0.634,0.266-0.634,0.646c0,0.363,0.249,0.629,0.623,0.629
		s0.635-0.262,0.635-0.635C49.888,100.042,49.645,99.749,49.264,99.749z"/>
	<path fill="#B2C0CE" d="M44.169,108.441l-0.969,1.444h-1.15l0.997-1.383l0.011-0.017c-0.079,0.028-0.192,0.045-0.283,0.045
		c-0.703,0-1.32-0.527-1.32-1.309c0-0.912,0.714-1.456,1.58-1.456c0.878,0,1.581,0.556,1.581,1.434
		C44.616,107.676,44.435,108.043,44.169,108.441z M43.041,106.548c-0.379,0-0.635,0.266-0.635,0.646c0,0.362,0.25,0.629,0.624,0.629
		c0.375,0,0.635-0.262,0.635-0.635C43.665,106.842,43.421,106.548,43.041,106.548z"/>
	<path fill="#B2C0CE" d="M50.485,109.103v0.782h-0.889v-0.782h-1.887v-0.798l1.632-2.432h1.139v2.46h0.555v0.77H50.485z
		 M49.602,106.847h-0.018l-0.952,1.486h0.97V106.847z"/>
</g>
<g>
	<g>
		<path fill="#FFFFFF" d="M24.712,20.345h-5.351h-7.003v5.322c0,0,7.003,0,7.003,9.17v11.221v4.826v1.834v22.323
			c0,8.271-4.466,9.933-6.264,10.266h-0.739v5.503h7.003h5.439h7.003v-5.503h-1.008c-5.897-0.958-5.995-10.266-5.995-10.266V52.718
			c0,0,2.57,0.078,13.139,8.804l8.305,6.912C65.707,84.633,67.777,90.81,67.777,90.81h5.35V65.097L46.245,42.721
			C26.782,26.521,24.712,20.345,24.712,20.345z"/>
	</g>
	<g>
		<path fill="#FFFFFF" d="M80.075,20.345h-7.002h-5.44h-7.003v5.502h0.127l-0.127,0.1c6.9,0,7.003,10.353,7.003,10.353v16.419
			l5.44,4.48V36.299c0-10.353,7.002-10.353,7.002-10.353l-0.189-0.1h0.189V20.345z"/>
	</g>
</g>
<g id="Vrstva_17">
	<g id="Vrstva_18">
		<g>
			<path fill="#001942" d="M46.106,76.858c-18.999-4.574-17.69-14.617-17.625-15.042l-0.005-23.153h35.48v23.224
				c0.06,0.354,1.369,10.396-17.63,14.971l-0.11,0.026L46.106,76.858z"/>
			<path fill="#FFFFFF" d="M63.486,39.133v22.754c0,0,1.527,9.988-17.269,14.513c-18.797-4.524-17.27-14.513-17.27-14.513V39.133
				H63.486 M64.427,38.193h-0.941H28.947h-0.94v0.94v22.692c-0.127,1.079-0.751,10.978,17.99,15.488l0.22,0.054l0.22-0.054
				c18.741-4.512,18.117-14.409,17.99-15.488V39.133V38.193L64.427,38.193z"/>
		</g>
	</g>
	<path fill="#66B3FF" d="M45.54,40.22v35.004c0,0-15.503-3.408-15.503-13.061c0-9.653,0-21.943,0-21.943H45.54z"/>
	<path fill="#FFFFFF" d="M46.744,40.22v35.004c0,0,15.503-3.408,15.503-13.061c0-9.653,0-21.943,0-21.943H46.744z"/>
	<rect x="46.224" y="55.71" fill="#001942" width="16.509" height="1.312"/>
	<path fill="#001942" d="M45.939,56.366l0.285,19.494c0,0,8.322-2.035,11.896-5.246c3.573-3.212,4.704-4.116,4.613-14.248H45.939z"
		/>
	<g>
		<path fill="#001942" d="M44.516,45.01c0,0,1.343-0.225,0.403-1.426c0,0,0.081,0.626-0.698,0.375
			c-0.777-0.25-1.932-0.075-1.932,0.577c0,0-0.509,0.15-0.294,0.426c0,0-1.29,0.075-1.048,1.15c0,0,0.591-0.451,1.53,0.3
			c0,0-1.583,0.75-2.092,0c0,0-0.376,1.526,2.28,0.375l-0.912,0.726c0,0,1.1,0.101,1.664-0.401c0,0,0.724,1.602-0.054,3.629
			c0,0-4.75-0.251-4.455-3.429c0,0,0.214-0.376-0.402-1.15c-0.618-0.776-1.021-2.178-0.457-3.179c0,0-1.879,0.8-0.725,3.878
			c0,0-3.198-1.15-4.351-3.878c0,0-1.204,4.003,3.735,6.056c0,0-2.434-0.141-4.053-1.041c0,0,1.047,1.817,4.509,2.468
			c0,0-2.04,0.953-4.509,0.653c0,0,2.201,1.374,4.804,1.048c0,0-1.69,2.072-4.804,2.072c0,0,3.543,1.506,6.199-0.17
			c0,0-2.012,3.635-6.199,3.531c0,0,3.864,1.774,7.783-1.355c0,0-0.778,3.079-3.597,4.255c0,0,3.918,0.075,5.932-3.027
			c0,0,0.698,1.226-0.375,2.652c-1.074,1.425-1.638,1-1.798,0.525c0,0-0.536,0.75,0.026,1.175l-3.06,2.777
			c0,0,0.457-1.851-0.725-1.726c-0.148,0.016-0.274,0.043-0.38,0.078c-1.457-0.532-1.263,0.647-1.263,0.647
			c0.193-0.397,0.552-0.355,0.803-0.263c-0.096,0.264,0.058,0.555,0.222,0.639c0.295,0.149,0.644,0.175,0.537,0.926
			c0,0-0.805,0.175-1.208,0c-0.403-0.176-0.832-0.426-1.073,0.25c-0.016,0.042-0.027,0.085-0.037,0.126
			c-1.183,0.243-0.517,1.081-0.517,1.081c-0.028-0.435,0.308-0.554,0.577-0.583c0.147,0.276,0.471,0.394,0.695,0.252
			c0.354-0.226,1.133-0.299,1.536-0.326c0,0-0.027,0.477-0.376,0.927c-0.299,0.386-0.299,0.66,0.144,0.811
			c-0.032,0.215-0.158,0.434-0.535,0.459c0,0,0.834,0.431,1.044-0.385c0.441-0.061,0.428-0.588,0.474-0.91
			c0.054-0.376,0.081-1,0.564-0.5c0.483,0.5,0.054,0.726,0.564,1.001c0.121,0.064,0.259,0.089,0.398,0.08
			c0.063,0.204,0.041,0.444-0.278,0.612c0,0,0.959,0.058,0.763-0.777c0.225-0.15,0.374-0.385,0.324-0.642
			c-0.107-0.55-1.718-0.824-1.341-1.351c0.374-0.526,2.495-2.002,3.274-2.127c0,0,0.242,0.776,0.939,0.575
			c0,0-0.456-0.301,0.161-0.801c0.618-0.501,1.878-0.7,1.878-0.7s0.43,2.902-0.215,3.103c-0.644,0.201-0.859-0.477-0.859-0.477
			s-0.805,0.752,0.269,1.228c0,0,0.081,0.45-0.483,0.825c-0.564,0.376-1.423,0.025-1.423-0.576c0-0.599,0.564-0.774,0.564-0.774
			s-1.262-0.15-1.423,1.201c-0.161,1.351,0.43,1.701,0.43,1.701s-2.147-0.075-2.04,1.476c0,0,0.778-0.774,2.067-0.325
			c1.288,0.451,2.629,0.051,2.979-0.35c0,0,0.295,1.752-0.724,1.552c0,0,0,0.475,0.67,0.525c0,0,0.054,1.227,1.396,2.001V48.365
			C45.939,48.365,45.59,46.288,44.516,45.01z"/>
	</g>
	<g>
		<g>
			<path fill="#001942" d="M52.457,44.999h-0.48h-0.629v0.478c0,0,0.629,0,0.629,0.823v1.006v0.434v0.164v2.004
				c0,0.742-0.401,0.891-0.562,0.922h-0.067v0.494h0.629h0.488h0.628V50.83h-0.091c-0.529-0.086-0.538-0.922-0.538-0.922v-2.004
				c0,0,0.23,0.007,1.179,0.79l0.746,0.62c1.746,1.455,1.932,2.01,1.932,2.01h0.48v-2.309l-2.413-2.009
				C52.643,45.553,52.457,44.999,52.457,44.999z"/>
		</g>
		<g>
			<path fill="#001942" d="M57.426,44.999h-0.629H56.31h-0.629v0.494h0.011l-0.011,0.009c0.62,0,0.629,0.929,0.629,0.929v1.473
				l0.488,0.402v-1.875c0-0.929,0.629-0.929,0.629-0.929l-0.017-0.009h0.017V44.999z"/>
		</g>
	</g>
	<g id="_x3C_Vrstva_x3E__kopie">
		<g>
			<path fill="#FFFFFF" d="M54.266,67.733c-0.483,0-0.912-0.08-1.287-0.24s-0.691-0.385-0.947-0.67
				c-0.256-0.287-0.451-0.629-0.583-1.026s-0.198-0.834-0.198-1.308c0-0.45,0.068-0.871,0.205-1.265
				c0.136-0.393,0.334-0.735,0.594-1.027c0.259-0.293,0.577-0.523,0.952-0.691s0.799-0.252,1.273-0.252
				c0.516,0,0.963,0.087,1.341,0.259c0.377,0.173,0.69,0.406,0.938,0.7s0.432,0.636,0.553,1.027s0.183,0.809,0.183,1.249
				c0,0.261-0.026,0.521-0.077,0.783c-0.051,0.261-0.129,0.511-0.234,0.751c-0.105,0.24-0.239,0.465-0.401,0.673
				c-0.162,0.209-0.355,0.39-0.58,0.542c-0.225,0.153-0.481,0.274-0.77,0.362C54.941,67.689,54.621,67.733,54.266,67.733z
				 M54.338,67.252c0.264,0,0.495-0.068,0.693-0.204c0.198-0.134,0.362-0.319,0.493-0.555c0.131-0.235,0.228-0.514,0.292-0.833
				c0.065-0.319,0.097-0.663,0.097-1.032c0-0.426-0.034-0.816-0.102-1.17c-0.067-0.354-0.172-0.658-0.313-0.914
				c-0.141-0.255-0.319-0.453-0.534-0.596c-0.214-0.143-0.47-0.214-0.767-0.214c-0.282,0-0.522,0.072-0.72,0.216
				c-0.198,0.145-0.36,0.337-0.486,0.578c-0.125,0.241-0.217,0.52-0.274,0.832c-0.057,0.314-0.085,0.641-0.085,0.979
				c0,0.417,0.033,0.803,0.099,1.159c0.066,0.354,0.168,0.662,0.306,0.922c0.138,0.26,0.315,0.463,0.531,0.61
				C53.785,67.178,54.042,67.252,54.338,67.252z"/>
		</g>
	</g>
</g>
<g>
	<path fill="#B2C0CE" d="M45.161,12.334h-1.785l3.921-11.293h1.761L45.161,12.334z"/>
</g>
<g>
	<path fill="#B2C0CE" d="M88.084,54.136c0.351,0,0.604-0.102,0.759-0.305c0.156-0.201,0.233-0.466,0.233-0.793v-1.761
		c0-0.335,0.042-0.634,0.128-0.894s0.229-0.48,0.425-0.658c0.199-0.18,0.464-0.315,0.794-0.408c0.33-0.094,0.741-0.141,1.23-0.141
		h0.233v1.389h-0.292c-0.35,0-0.585,0.077-0.706,0.232c-0.121,0.156-0.181,0.397-0.181,0.725v1.551c0,0.404-0.055,0.747-0.164,1.027
		c-0.108,0.279-0.327,0.521-0.653,0.723c0.326,0.203,0.545,0.443,0.653,0.723c0.109,0.281,0.164,0.623,0.164,1.027v1.552
		c0,0.327,0.06,0.567,0.181,0.723c0.12,0.155,0.355,0.233,0.706,0.233h0.292v1.389h-0.233c-0.49,0-0.9-0.046-1.23-0.14
		c-0.331-0.095-0.596-0.23-0.794-0.408c-0.197-0.18-0.34-0.398-0.425-0.66c-0.085-0.26-0.128-0.559-0.128-0.892v-1.762
		c0-0.328-0.078-0.592-0.233-0.794c-0.155-0.202-0.408-0.303-0.759-0.303V54.136z"/>
</g>
<g>
	<polygon fill="#B2C0CE" points="2.576,54.824 0.628,49.177 2.388,49.177 4.349,54.824 2.401,60.47 0.628,60.47 2.588,54.824 	"/>
</g>
<g>
	<path fill="#FFFFFF" d="M120.325,39.345c0-0.485-0.137-0.881-0.409-1.193c-0.274-0.311-0.75-0.582-1.432-0.817
		c-0.978-0.295-1.728-0.683-2.25-1.159c-0.521-0.477-0.782-1.106-0.782-1.89c0-0.808,0.29-1.471,0.872-1.99
		c0.579-0.519,1.326-0.778,2.238-0.778c0.949,0,1.714,0.299,2.294,0.899c0.581,0.6,0.862,1.322,0.843,2.167l-0.014,0.042h-1.375
		c0-0.598-0.154-1.086-0.462-1.46s-0.741-0.563-1.301-0.563c-0.532,0-0.942,0.158-1.231,0.469c-0.288,0.313-0.433,0.712-0.433,1.196
		c0,0.438,0.155,0.804,0.464,1.102c0.31,0.3,0.824,0.572,1.538,0.815c0.936,0.292,1.648,0.69,2.136,1.193
		c0.489,0.504,0.733,1.157,0.733,1.955c0,0.844-0.289,1.512-0.868,2.006c-0.577,0.494-1.336,0.742-2.276,0.742
		c-0.917,0-1.717-0.271-2.402-0.814c-0.684-0.543-1.014-1.31-0.99-2.296l0.014-0.042h1.376c0,0.703,0.185,1.224,0.553,1.56
		c0.369,0.339,0.852,0.507,1.449,0.507c0.536,0,0.956-0.15,1.258-0.448C120.174,40.249,120.325,39.848,120.325,39.345z"/>
	<path fill="#FFFFFF" d="M132.136,32.751H129.5v9.181h-1.434v-9.181h-2.622v-1.086h6.691V32.751z"/>
	<path fill="#FFFFFF" d="M137.712,37.503v4.429h-1.431v-10.26h3.193c0.974,0,1.727,0.251,2.257,0.754
		c0.531,0.502,0.796,1.223,0.796,2.163c0,0.535-0.124,1.003-0.369,1.402c-0.247,0.4-0.603,0.711-1.069,0.938
		c0.512,0.173,0.883,0.467,1.11,0.885c0.229,0.416,0.343,0.93,0.343,1.542v0.896c0,0.313,0.033,0.608,0.096,0.879
		c0.064,0.27,0.172,0.482,0.328,0.639v0.162h-1.473c-0.16-0.155-0.263-0.391-0.308-0.703c-0.045-0.314-0.067-0.644-0.067-0.993
		v-0.869c0-0.574-0.129-1.027-0.39-1.362c-0.262-0.334-0.62-0.502-1.076-0.502H137.712z M139.065,29.881l0.791-1.058h1.277v0.119
		l-1.592,1.693h-0.946l-1.587-1.686v-0.127h1.262L139.065,29.881z M137.712,36.417h1.693c0.577,0,1.003-0.156,1.279-0.469
		c0.276-0.313,0.414-0.756,0.414-1.332c0-0.588-0.134-1.046-0.403-1.371c-0.268-0.325-0.675-0.487-1.22-0.487h-1.763V36.417z"/>
	<path fill="#FFFFFF" d="M152.486,37.159h-3.809v3.688h4.416v1.086h-5.846V31.665h5.803v1.086h-4.373v3.321h3.809V37.159z"/>
	<path fill="#FFFFFF" d="M157.285,41.932V31.665h2.822c1.091,0,1.979,0.412,2.67,1.234c0.688,0.823,1.032,1.88,1.032,3.173v1.459
		c0,1.297-0.345,2.356-1.032,3.173c-0.69,0.819-1.579,1.228-2.67,1.228H157.285z M158.718,32.751v8.095h1.338
		c0.72,0,1.287-0.308,1.704-0.926c0.416-0.616,0.624-1.414,0.624-2.396V36.05c0-0.97-0.208-1.762-0.624-2.376
		c-0.417-0.616-0.984-0.923-1.704-0.923H158.718z"/>
	<path fill="#FFFFFF" d="M174.933,41.932h-1.425l-3.892-7.637l-0.043,0.015v7.622h-1.43V31.665h1.43l3.892,7.615l0.043-0.015v-7.601
		h1.425V41.932z"/>
	<path fill="#FFFFFF" d="M180.88,29.056h1.594l0.014,0.036l-1.678,1.84h-1.143L180.88,29.056z M181.1,41.932h-1.425V31.665h1.425
		V41.932z"/>
	<path fill="#FFFFFF" d="M198.653,38.216c0,1.218-0.316,2.166-0.946,2.845c-0.629,0.678-1.474,1.02-2.531,1.02
		c-1.043,0-1.874-0.341-2.49-1.02c-0.615-0.679-0.923-1.627-0.923-2.845v-2.82c0-1.214,0.31-2.164,0.927-2.849
		c0.619-0.687,1.447-1.029,2.486-1.029c1.055,0,1.895,0.342,2.527,1.029c0.634,0.686,0.95,1.635,0.95,2.849V38.216z M197.228,35.374
		c0-0.894-0.181-1.57-0.536-2.033c-0.357-0.463-0.864-0.695-1.517-0.695c-0.644,0-1.138,0.232-1.48,0.695
		c-0.342,0.463-0.516,1.14-0.516,2.033v2.843c0,0.902,0.174,1.587,0.52,2.051c0.344,0.466,0.837,0.699,1.477,0.699
		c0.658,0,1.165-0.231,1.521-0.695c0.354-0.462,0.532-1.148,0.532-2.055V35.374z"/>
	<path fill="#FFFFFF" d="M203.074,41.932V31.665h2.822c1.09,0,1.979,0.412,2.669,1.234c0.688,0.823,1.033,1.88,1.033,3.173v1.459
		c0,1.297-0.346,2.356-1.033,3.173c-0.689,0.819-1.579,1.228-2.669,1.228H203.074z M204.506,32.751v8.095h1.339
		c0.72,0,1.287-0.308,1.704-0.926c0.415-0.616,0.624-1.414,0.624-2.396V36.05c0-0.97-0.209-1.762-0.624-2.376
		c-0.417-0.616-0.984-0.923-1.704-0.923H204.506z"/>
	<path fill="#FFFFFF" d="M213.932,41.932V31.665h2.862c0.969,0,1.725,0.23,2.268,0.691c0.544,0.461,0.814,1.152,0.814,2.073
		c0,0.488-0.124,0.92-0.371,1.292c-0.248,0.375-0.589,0.648-1.025,0.823c0.555,0.121,0.981,0.412,1.28,0.871
		c0.299,0.458,0.447,0.995,0.447,1.611c0,0.944-0.266,1.666-0.801,2.162c-0.533,0.494-1.271,0.743-2.211,0.743H213.932z
		 M215.363,36.116h1.574c0.468,0,0.839-0.145,1.105-0.43c0.269-0.286,0.4-0.697,0.4-1.236c0-0.565-0.138-0.99-0.418-1.274
		c-0.279-0.283-0.688-0.424-1.23-0.424h-1.432V36.116z M215.363,37.145v3.702h1.833c0.508,0,0.899-0.156,1.175-0.47
		c0.274-0.312,0.412-0.76,0.412-1.343c0-0.578-0.118-1.038-0.354-1.378s-0.595-0.511-1.085-0.511H215.363z"/>
	<path fill="#FFFFFF" d="M231.256,38.216c0,1.218-0.314,2.166-0.946,2.845c-0.629,0.678-1.473,1.02-2.529,1.02
		c-1.045,0-1.875-0.341-2.49-1.02c-0.616-0.679-0.925-1.627-0.925-2.845v-2.82c0-1.214,0.311-2.164,0.93-2.849
		c0.616-0.687,1.445-1.029,2.485-1.029c1.053,0,1.895,0.342,2.527,1.029c0.634,0.686,0.948,1.635,0.948,2.849V38.216z
		 M229.833,35.374c0-0.894-0.182-1.57-0.538-2.033c-0.354-0.463-0.862-0.695-1.515-0.695c-0.645,0-1.14,0.232-1.481,0.695
		c-0.343,0.463-0.515,1.14-0.515,2.033v2.843c0,0.902,0.172,1.587,0.52,2.051c0.344,0.466,0.836,0.699,1.477,0.699
		c0.658,0,1.165-0.231,1.52-0.695c0.355-0.462,0.533-1.148,0.533-2.055V35.374z"/>
	<path fill="#FFFFFF" d="M237.111,37.503v4.429h-1.433v-10.26h3.195c0.974,0,1.725,0.251,2.257,0.754
		c0.53,0.502,0.797,1.223,0.797,2.163c0,0.535-0.123,1.003-0.371,1.402c-0.246,0.4-0.602,0.711-1.068,0.938
		c0.514,0.173,0.883,0.467,1.111,0.885c0.229,0.416,0.342,0.93,0.342,1.542v0.896c0,0.313,0.032,0.608,0.096,0.879
		c0.063,0.27,0.172,0.482,0.329,0.639v0.162h-1.476c-0.16-0.155-0.262-0.391-0.307-0.703c-0.044-0.314-0.066-0.644-0.066-0.993
		v-0.869c0-0.574-0.131-1.027-0.392-1.362c-0.261-0.334-0.62-0.502-1.075-0.502H237.111z M237.111,36.417h1.691
		c0.58,0,1.005-0.156,1.281-0.469c0.275-0.313,0.412-0.756,0.412-1.332c0-0.588-0.135-1.046-0.402-1.371s-0.675-0.487-1.22-0.487
		h-1.763V36.417z"/>
	<path fill="#FFFFFF" d="M253.434,41.932h-1.425l-3.892-7.637l-0.044,0.015v7.622h-1.43V31.665h1.43l3.894,7.615l0.042-0.015v-7.601
		h1.425V41.932z"/>
	<path fill="#FFFFFF" d="M263.032,39.336h-3.27l-0.749,2.596h-1.452l3.158-10.267h1.382l3.13,10.267h-1.452L263.032,39.336z
		 M260.09,38.202h2.617l-1.282-4.486h-0.044L260.09,38.202z M262.01,29.056h1.593l0.014,0.036l-1.678,1.84h-1.143L262.01,29.056z"/>
	<path fill="#FFFFFF" d="M280,39.345c0-0.485-0.137-0.881-0.411-1.193c-0.271-0.311-0.748-0.582-1.431-0.817
		c-0.979-0.295-1.728-0.683-2.248-1.159c-0.523-0.477-0.784-1.106-0.784-1.89c0-0.808,0.292-1.471,0.871-1.99
		c0.581-0.519,1.327-0.778,2.238-0.778c0.951,0,1.716,0.299,2.297,0.899c0.582,0.6,0.86,1.322,0.842,2.167l-0.014,0.042h-1.376
		c0-0.598-0.154-1.086-0.463-1.46c-0.308-0.375-0.74-0.563-1.3-0.563c-0.53,0-0.939,0.158-1.229,0.469
		c-0.289,0.313-0.434,0.712-0.434,1.196c0,0.438,0.154,0.804,0.467,1.102c0.309,0.3,0.821,0.572,1.535,0.815
		c0.937,0.292,1.647,0.69,2.138,1.193c0.488,0.504,0.733,1.157,0.733,1.955c0,0.844-0.29,1.512-0.868,2.006
		c-0.579,0.494-1.336,0.742-2.277,0.742c-0.917,0-1.718-0.271-2.401-0.814c-0.685-0.543-1.015-1.31-0.989-2.296l0.014-0.042h1.373
		c0,0.703,0.186,1.224,0.554,1.56c0.371,0.339,0.854,0.507,1.45,0.507c0.536,0,0.955-0.15,1.259-0.448
		C279.846,40.249,280,39.848,280,39.345z M278.095,29.748l0.789-1.059h1.275v0.121l-1.592,1.692h-0.945l-1.588-1.685v-0.127h1.263
		L278.095,29.748z"/>
	<path fill="#FFFFFF" d="M288.141,37.327h-0.98v4.605h-1.432V31.665h1.432v4.513h0.854l2.715-4.513h1.705l-3.229,4.872l3.478,5.396
		h-1.748L288.141,37.327z"/>
	<path fill="#FFFFFF" d="M302.811,38.216c0,1.218-0.316,2.166-0.947,2.845c-0.63,0.678-1.473,1.02-2.53,1.02
		c-1.043,0-1.873-0.341-2.489-1.02c-0.616-0.679-0.924-1.627-0.924-2.845v-2.82c0-1.214,0.31-2.164,0.929-2.849
		c0.616-0.687,1.445-1.029,2.484-1.029c1.054,0,1.895,0.342,2.526,1.029c0.635,0.686,0.951,1.635,0.951,2.849V38.216z
		 M301.386,35.374c0-0.894-0.18-1.57-0.536-2.033c-0.358-0.463-0.863-0.695-1.517-0.695c-0.645,0-1.139,0.232-1.481,0.695
		c-0.341,0.463-0.513,1.14-0.513,2.033v2.843c0,0.902,0.172,1.587,0.518,2.051c0.344,0.466,0.836,0.699,1.477,0.699
		c0.659,0,1.166-0.231,1.521-0.695c0.354-0.462,0.532-1.148,0.532-2.055V35.374z"/>
	<path fill="#FFFFFF" d="M308.664,40.846h4.007v1.086h-5.439V31.665h1.433V40.846z"/>
	<path fill="#FFFFFF" d="M321.899,39.336h-3.272l-0.747,2.596h-1.454l3.16-10.267h1.382l3.132,10.267h-1.453L321.899,39.336z
		 M318.959,38.202h2.616l-1.285-4.486h-0.043L318.959,38.202z"/>
</g>
<g>
	<path fill="#FFFFFF" d="M123.616,62.997l-2.042-2.965v17.753c0,0.282,0.077,0.518,0.231,0.703c0.154,0.187,0.38,0.331,0.674,0.432
		l2.445,0.828v1.177h-9.319v-1.177l2.445-0.828c0.256-0.089,0.471-0.233,0.644-0.432c0.175-0.2,0.261-0.434,0.261-0.703V57.489
		c0-0.293-0.09-0.541-0.27-0.742c-0.18-0.198-0.392-0.33-0.635-0.392l-2.638-0.79V54.39h8.433l11.573,16.635l1.811,2.639V57.527
		c0-0.294-0.077-0.53-0.231-0.711c-0.154-0.179-0.379-0.322-0.675-0.423l-2.446-0.828V54.39h9.338v1.175l-2.444,0.828
		c-0.271,0.101-0.491,0.246-0.663,0.434c-0.174,0.185-0.261,0.419-0.261,0.7v18.987l-0.578,4.602h-3.041L123.616,62.997z"/>
	<path fill="#FFFFFF" d="M145.608,79.748l2.446-0.712c0.255-0.077,0.469-0.216,0.644-0.413c0.174-0.199,0.26-0.441,0.26-0.723
		V57.412c0-0.293-0.086-0.541-0.26-0.741c-0.175-0.198-0.389-0.336-0.644-0.413l-2.446-0.692V54.39h21.295v6.892h-1.347l-1.561-4.1
		c-0.077-0.194-0.171-0.354-0.277-0.48c-0.109-0.131-0.279-0.194-0.512-0.194h-8.78v9.533h5.583c0.258,0,0.444-0.06,0.56-0.175
		c0.116-0.115,0.205-0.265,0.27-0.441l1.291-3.16h1.211v9.685h-1.211l-1.291-3.117c-0.077-0.191-0.17-0.353-0.279-0.481
		c-0.11-0.129-0.292-0.193-0.55-0.193h-5.583v10.63h10.437c0.23,0,0.405-0.062,0.521-0.183c0.116-0.124,0.204-0.285,0.27-0.493
		l1.481-4.639h1.35v7.452h-22.876V79.748z"/>
	<path fill="#FFFFFF" d="M175.81,79.769l2.831-0.714c0.283-0.064,0.504-0.199,0.664-0.404s0.241-0.449,0.241-0.732V56.507h-5.644
		c-0.255,0-0.441,0.063-0.557,0.194c-0.116,0.127-0.206,0.286-0.27,0.48l-1.579,4.256h-1.29V54.39h24.203v7.048h-1.289l-1.581-4.256
		c-0.062-0.194-0.15-0.354-0.259-0.48c-0.109-0.131-0.285-0.194-0.528-0.194h-5.738v21.411c0,0.297,0.093,0.543,0.279,0.742
		c0.185,0.198,0.4,0.33,0.645,0.395l2.83,0.714v1.155H175.81V79.769z"/>
	<path fill="#FFFFFF" d="M221.079,81.519c-2.067,0-3.903-0.342-5.508-1.028c-1.604-0.688-2.956-1.645-4.053-2.869
		c-1.097-1.227-1.929-2.689-2.493-4.392c-0.565-1.7-0.847-3.564-0.847-5.592c0-1.927,0.291-3.73,0.875-5.411
		c0.583-1.684,1.433-3.148,2.542-4.398c1.11-1.254,2.469-2.237,4.072-2.957c1.605-0.72,3.421-1.078,5.448-1.078
		c2.21,0,4.121,0.368,5.738,1.106c1.617,0.739,2.956,1.737,4.014,2.993c1.06,1.26,1.851,2.727,2.368,4.399
		c0.521,1.676,0.781,3.458,0.781,5.346c0,1.116-0.108,2.233-0.326,3.35c-0.22,1.115-0.553,2.188-1.003,3.215
		c-0.448,1.028-1.02,1.988-1.712,2.88c-0.693,0.891-1.522,1.664-2.484,2.319c-0.963,0.654-2.06,1.171-3.292,1.55
		C223.968,81.332,222.595,81.519,221.079,81.519z M221.386,79.461c1.129,0,2.117-0.291,2.966-0.868
		c0.848-0.577,1.55-1.37,2.107-2.379c0.559-1.006,0.977-2.193,1.253-3.562c0.274-1.367,0.413-2.84,0.413-4.419
		c0-1.822-0.145-3.491-0.435-5.007c-0.286-1.513-0.733-2.816-1.336-3.908c-0.605-1.09-1.364-1.941-2.282-2.55
		c-0.919-0.611-2.012-0.915-3.285-0.915c-1.204,0-2.231,0.308-3.079,0.925c-0.847,0.615-1.539,1.439-2.078,2.473
		c-0.54,1.033-0.934,2.22-1.176,3.562c-0.243,1.343-0.366,2.739-0.366,4.189c0,1.784,0.142,3.437,0.423,4.958
		c0.283,1.521,0.72,2.836,1.311,3.946c0.59,1.11,1.348,1.981,2.271,2.609C219.017,79.145,220.115,79.461,221.386,79.461z"/>
	<path fill="#FFFFFF" d="M235.753,79.748l2.446-0.712c0.245-0.063,0.455-0.199,0.635-0.403c0.181-0.205,0.271-0.451,0.271-0.732
		V57.412c0-0.293-0.087-0.545-0.259-0.75c-0.176-0.205-0.39-0.34-0.646-0.404l-2.446-0.692V54.39h21.335v6.854h-1.308l-1.561-4.063
		c-0.064-0.179-0.154-0.336-0.271-0.473c-0.114-0.135-0.287-0.202-0.519-0.202h-8.857v9.819h5.777c0.255,0,0.441-0.06,0.558-0.182
		c0.114-0.122,0.205-0.271,0.269-0.452l1.291-3.274h1.176v9.917h-1.176l-1.291-3.234c-0.077-0.205-0.17-0.369-0.277-0.492
		c-0.108-0.122-0.294-0.182-0.549-0.182h-5.777V77.9c0,0.297,0.087,0.542,0.26,0.742c0.174,0.198,0.396,0.33,0.664,0.394
		l2.754,0.712v1.177h-12.497V79.748z"/>
	<path fill="#FFFFFF" d="M259.451,79.748l2.446-0.712c0.244-0.063,0.456-0.199,0.637-0.403c0.179-0.205,0.269-0.451,0.269-0.732
		V57.412c0-0.293-0.087-0.545-0.259-0.75c-0.175-0.205-0.39-0.34-0.646-0.404l-2.446-0.692V54.39h21.337v6.854h-1.309l-1.562-4.063
		c-0.064-0.179-0.153-0.336-0.269-0.473c-0.116-0.135-0.29-0.202-0.521-0.202h-8.857v9.819h5.777c0.255,0,0.44-0.06,0.557-0.182
		c0.115-0.122,0.206-0.271,0.269-0.452l1.291-3.274h1.176v9.917h-1.176l-1.291-3.234c-0.076-0.205-0.169-0.369-0.276-0.492
		c-0.109-0.122-0.294-0.182-0.549-0.182h-5.777V77.9c0,0.297,0.088,0.542,0.26,0.742c0.174,0.198,0.396,0.33,0.664,0.394
		l2.753,0.712v1.177h-12.497V79.748z"/>
	<path fill="#FFFFFF" d="M283.152,79.748l2.444-0.712c0.282-0.077,0.502-0.216,0.664-0.413c0.161-0.199,0.24-0.441,0.24-0.723
		V57.412c0-0.293-0.09-0.545-0.269-0.75s-0.393-0.34-0.636-0.404l-2.444-0.692V54.39h12.168v1.175l-2.428,0.692
		c-0.242,0.064-0.458,0.203-0.644,0.413c-0.187,0.213-0.28,0.461-0.28,0.741V77.9c0,0.297,0.088,0.539,0.263,0.732
		c0.172,0.191,0.394,0.326,0.661,0.403l2.428,0.712v1.177h-12.168V79.748z"/>
	<path fill="#FFFFFF" d="M309.618,81.481c-1.938,0-3.691-0.316-5.257-0.953c-1.565-0.636-2.901-1.546-4.005-2.734
		c-1.103-1.186-1.953-2.63-2.552-4.332c-0.596-1.7-0.896-3.616-0.896-5.746c0-1.375,0.148-2.671,0.444-3.891
		c0.294-1.221,0.715-2.345,1.259-3.38c0.548-1.033,1.202-1.957,1.966-2.771c0.765-0.817,1.617-1.511,2.563-2.082
		c0.941-0.571,1.962-1.006,3.061-1.309c1.097-0.302,2.248-0.452,3.454-0.452c0.63,0,1.342,0.045,2.138,0.134
		c0.796,0.091,1.595,0.206,2.396,0.347c0.803,0.143,1.566,0.302,2.292,0.482c0.725,0.182,1.335,0.357,1.819,0.539v6.49h-1.287
		l-1.427-3.37c-0.103-0.218-0.218-0.387-0.347-0.503c-0.128-0.115-0.277-0.223-0.442-0.326c-0.795-0.45-1.616-0.798-2.466-1.05
		c-0.847-0.25-1.738-0.374-2.677-0.374c-1.024,0-1.958,0.238-2.8,0.71c-0.842,0.477-1.56,1.177-2.157,2.101
		c-0.596,0.924-1.059,2.065-1.386,3.418c-0.326,1.353-0.491,2.911-0.491,4.668c0,1.823,0.183,3.44,0.55,4.852
		c0.363,1.413,0.913,2.604,1.645,3.572c0.731,0.971,1.64,1.704,2.725,2.205c1.085,0.5,2.34,0.752,3.766,0.752
		c0.935,0,1.76-0.105,2.474-0.317c0.713-0.212,1.347-0.475,1.907-0.791c0.558-0.314,1.052-0.661,1.482-1.039
		c0.429-0.379,0.831-0.733,1.201-1.068h0.828v2.099c-0.512,0.451-1.128,0.914-1.848,1.397c-0.719,0.479-1.509,0.924-2.367,1.327
		c-0.863,0.405-1.765,0.739-2.706,1.002C311.534,81.349,310.582,81.481,309.618,81.481z"/>
	<path fill="#FFFFFF" d="M321.14,79.748l2.447-0.712c0.257-0.077,0.471-0.216,0.646-0.413c0.172-0.199,0.259-0.441,0.259-0.723
		V57.412c0-0.293-0.087-0.541-0.259-0.741c-0.176-0.198-0.39-0.336-0.646-0.413l-2.447-0.692V54.39h21.297v6.892h-1.346l-1.561-4.1
		c-0.077-0.194-0.169-0.354-0.28-0.48c-0.109-0.131-0.278-0.194-0.51-0.194h-8.78v9.533h5.585c0.256,0,0.441-0.06,0.557-0.175
		c0.116-0.115,0.207-0.265,0.271-0.441l1.291-3.16h1.213v9.685h-1.213l-1.291-3.117c-0.077-0.191-0.171-0.353-0.279-0.481
		c-0.109-0.129-0.292-0.193-0.548-0.193h-5.585v10.63h10.438c0.231,0,0.403-0.062,0.519-0.183c0.115-0.124,0.204-0.285,0.27-0.493
		l1.482-4.639h1.349v7.452H321.14V79.748z"/>
</g>
<g id="Vrstva_16">
</g>
</svg>
