<?xml version="1.0" standalone="no"?>
<!DOCTYPE svg PUBLIC "-//W3C//DTD SVG 20010904//EN"
 "http://www.w3.org/TR/2001/REC-SVG-20010904/DTD/svg10.dtd">
<svg version="1.0" xmlns="http://www.w3.org/2000/svg"
 width="196.000000pt" height="196.000000pt" viewBox="0 0 196.000000 196.000000"
 preserveAspectRatio="xMidYMid meet">
<metadata>
Created by potrace 1.11, written by Peter Selinger 2001-2013
</metadata>
<g transform="translate(0.000000,196.000000) scale(0.100000,-0.100000)"
fill="#000000" stroke="none">
<path d="M67 1933 c-4 -3 -7 -36 -7 -73 l0 -67 44 -13 c27 -7 60 -27 81 -48
65 -65 65 -65 65 -742 0 -651 -1 -661 -52 -735 -25 -38 -84 -75 -117 -75 -21
0 -22 -4 -19 -77 l3 -78 260 0 260 0 3 78 3 77 -31 0 c-44 0 -104 58 -132 128
-22 55 -23 70 -26 400 -3 368 -5 357 48 327 14 -8 28 -14 33 -15 4 0 7 97 7
215 l0 215 173 0 172 0 -142 138 c-143 139 -214 218 -272 305 l-32 47 -158 0
c-87 0 -161 -3 -164 -7z"/>
<path d="M1377 1933 c-4 -3 -7 -39 -7 -80 0 -67 2 -73 21 -73 52 0 111 -54
141 -129 21 -52 23 -75 26 -326 l4 -270 72 -59 71 -59 6 334 c4 253 9 344 19
374 20 55 89 122 134 130 l36 7 0 79 0 79 -258 0 c-142 0 -262 -3 -265 -7z"/>
<path d="M510 1097 c0 -280 3 -341 16 -381 21 -62 101 -147 183 -196 74 -43
228 -100 271 -100 41 0 213 63 277 102 75 45 157 135 177 194 13 40 16 100 16
381 l0 333 -470 0 -470 0 0 -333z m900 93 l0 -210 -205 0 -205 0 0 210 0 210
205 0 205 0 0 -210z m-450 160 c0 -22 -3 -41 -7 -42 -5 0 -20 -2 -34 -3 -35
-3 -86 -42 -94 -73 -8 -31 -5 -33 39 -35 39 -2 49 -16 40 -53 -7 -28 -23 -30
-67 -8 -38 20 -47 31 -47 64 0 14 -7 34 -15 44 -8 11 -15 36 -15 55 0 33 -1
34 -17 18 -10 -9 -17 -32 -17 -52 0 -19 -4 -35 -8 -35 -5 0 -29 21 -54 46 -25
25 -48 43 -51 40 -13 -13 11 -88 37 -116 30 -32 27 -33 -27 -13 -17 7 -16 -12
1 -26 8 -7 31 -20 52 -31 l39 -19 -35 -2 c-19 -2 -43 -3 -52 -2 -10 0 -18 -4
-18 -8 0 -9 56 -29 82 -29 35 0 13 -25 -37 -41 -61 -19 -46 -32 37 -33 l59 -1
-26 -23 c-15 -12 -47 -28 -71 -34 -28 -8 -39 -15 -31 -20 20 -13 106 -9 144 7
20 8 38 13 41 10 3 -3 -16 -25 -41 -50 -26 -25 -42 -45 -35 -45 29 0 88 22
122 45 41 28 42 26 20 -16 -11 -23 -21 -30 -35 -26 -13 4 -19 0 -19 -12 0 -10
-14 -30 -31 -47 -28 -26 -31 -27 -40 -11 -11 19 -69 24 -69 6 0 -6 10 -20 23
-31 l22 -20 -24 6 c-27 6 -61 -12 -61 -33 0 -10 9 -12 34 -8 34 5 35 5 31 -24
-3 -24 0 -30 13 -27 9 2 21 13 27 25 l11 22 16 -27 16 -26 13 28 c12 25 11 30
-5 41 -10 8 -15 19 -11 24 11 19 63 41 80 35 10 -4 22 1 31 15 24 33 44 27 44
-15 0 -31 -2 -35 -21 -29 -18 6 -20 3 -17 -22 2 -20 -1 -28 -12 -28 -9 0 -14
7 -12 18 2 13 -2 18 -15 15 -13 -2 -19 -14 -21 -41 -2 -24 -8 -37 -17 -37 -17
0 -39 -36 -27 -44 4 -2 14 -1 21 4 8 4 26 4 42 0 15 -5 37 -6 49 -3 21 6 28
-12 8 -20 -9 -4 -10 -8 -3 -14 20 -15 45 -62 45 -83 0 -25 -12 -25 -81 -1
-142 48 -267 140 -308 224 -20 41 -21 60 -21 365 l0 322 205 0 205 0 0 -40z
m267 -530 c89 -31 58 -170 -38 -170 -32 0 -69 44 -69 84 0 58 10 70 76 96 1 0
15 -5 31 -10z"/>
<path d="M1120 1262 c0 -4 5 -13 11 -19 12 -12 8 -106 -5 -135 -6 -14 -4 -18
12 -18 24 0 37 16 22 25 -11 7 -14 65 -3 65 4 0 28 -18 54 -40 26 -22 50 -40
53 -40 3 0 6 13 6 28 0 22 -14 41 -64 85 -60 53 -86 68 -86 49z"/>
<path d="M1247 1233 c7 -49 23 -67 23 -26 0 17 3 38 6 47 4 11 0 16 -14 16
-18 0 -20 -5 -15 -37z"/>
<path d="M1160 775 c-17 -52 8 -115 45 -115 2 0 11 7 19 16 19 19 22 104 4
122 -25 25 -56 14 -68 -23z"/>
<path d="M1470 822 c0 -79 -3 -96 -31 -150 -35 -71 -103 -135 -191 -182 -32
-17 -58 -32 -58 -33 0 -1 65 -67 143 -147 79 -80 164 -178 191 -218 l48 -73
67 3 66 3 3 350 2 350 -112 93 c-61 50 -115 92 -120 92 -4 0 -8 -40 -8 -88z"/>
</g>
</svg>
